# Blender v2.79 (sub 0) OBJ File: 'NPCsLongHall.blend'
# www.blender.org
mtllib NPCLeftArm.mtl
o Cube.003_Cube.004
v -0.138016 0.336373 0.382873
v -0.138016 2.679186 0.382873
v -0.138016 0.336373 0.616031
v -0.138016 2.679186 0.616031
v 0.143217 0.336373 0.382873
v 0.143217 2.679186 0.382873
v 0.143217 0.336373 0.616031
v 0.143217 2.679186 0.616031
vn -1.0000 0.0000 0.0000
vn 0.0000 0.0000 1.0000
vn 1.0000 0.0000 0.0000
vn 0.0000 0.0000 -1.0000
vn 0.0000 -1.0000 0.0000
vn 0.0000 1.0000 0.0000
usemtl None
s off
f 1//1 3//1 4//1 2//1
f 3//2 7//2 8//2 4//2
f 7//3 5//3 6//3 8//3
f 5//4 1//4 2//4 6//4
f 3//5 1//5 5//5 7//5
f 8//6 6//6 2//6 4//6
