# Blender v2.79 (sub 0) OBJ File: 'PlayerLongHall.blend'
# www.blender.org
mtllib PlayerLongHall.mtl
o Cube.004_Cube.005
v -0.138016 0.336252 -1.121822
v -0.138016 2.679065 -1.121822
v -0.138016 0.336252 -0.888664
v -0.138016 2.679065 -0.888664
v 0.143217 0.336252 -1.121822
v 0.143217 2.679065 -1.121822
v 0.143217 0.336252 -0.888664
v 0.143217 2.679065 -0.888664
vn -1.0000 0.0000 0.0000
vn 0.0000 0.0000 1.0000
vn 1.0000 0.0000 0.0000
vn 0.0000 0.0000 -1.0000
vn 0.0000 -1.0000 0.0000
vn 0.0000 1.0000 0.0000
usemtl None
s off
f 1//1 3//1 4//1 2//1
f 3//2 7//2 8//2 4//2
f 7//3 5//3 6//3 8//3
f 5//4 1//4 2//4 6//4
f 3//5 1//5 5//5 7//5
f 8//6 6//6 2//6 4//6
o Cube.003_Cube.004
v -0.138016 0.336373 0.382873
v -0.138016 2.679186 0.382873
v -0.138016 0.336373 0.616031
v -0.138016 2.679186 0.616031
v 0.143217 0.336373 0.382873
v 0.143217 2.679186 0.382873
v 0.143217 0.336373 0.616031
v 0.143217 2.679186 0.616031
vn -1.0000 0.0000 0.0000
vn 0.0000 0.0000 1.0000
vn 1.0000 0.0000 0.0000
vn 0.0000 0.0000 -1.0000
vn 0.0000 -1.0000 0.0000
vn 0.0000 1.0000 0.0000
usemtl None
s off
f 9//7 11//7 12//7 10//7
f 11//8 15//8 16//8 12//8
f 15//9 13//9 14//9 16//9
f 13//10 9//10 10//10 14//10
f 11//11 9//11 13//11 15//11
f 16//12 14//12 10//12 12//12
o Cube.002_Cube.003
v -0.208411 0.809267 0.392551
v -0.208411 2.809268 0.392551
v -0.208411 0.809267 -0.905919
v -0.208411 2.809268 -0.905919
v 0.242304 0.809267 0.392551
v 0.242304 2.809268 0.392551
v 0.242304 0.809267 -0.905919
v 0.242304 2.809268 -0.905919
vn -1.0000 0.0000 0.0000
vn 0.0000 0.0000 -1.0000
vn 1.0000 0.0000 0.0000
vn 0.0000 0.0000 1.0000
vn 0.0000 -1.0000 0.0000
vn 0.0000 1.0000 0.0000
usemtl None
s off
f 17//13 18//13 20//13 19//13
f 19//14 20//14 24//14 23//14
f 23//15 24//15 22//15 21//15
f 21//16 22//16 18//16 17//16
f 19//17 23//17 21//17 17//17
f 24//18 20//18 18//18 22//18
o Cube.001_Cube.002
v -0.134629 -1.174910 -0.601165
v -0.134629 1.167903 -0.601165
v -0.134629 -1.174910 -0.368007
v -0.134629 1.167903 -0.368007
v 0.146605 -1.174910 -0.601165
v 0.146605 1.167903 -0.601165
v 0.146605 -1.174910 -0.368007
v 0.146605 1.167903 -0.368007
vn -1.0000 0.0000 0.0000
vn 0.0000 0.0000 1.0000
vn 1.0000 0.0000 0.0000
vn 0.0000 0.0000 -1.0000
vn 0.0000 -1.0000 0.0000
vn 0.0000 1.0000 0.0000
usemtl None
s off
f 25//19 27//19 28//19 26//19
f 27//20 31//20 32//20 28//20
f 31//21 29//21 30//21 32//21
f 29//22 25//22 26//22 30//22
f 27//23 25//23 29//23 31//23
f 32//24 30//24 26//24 28//24
o Cube_Cube.001
v -0.138016 -1.181988 -0.143726
v -0.138016 1.160825 -0.143726
v -0.138016 -1.181988 0.089431
v -0.138016 1.160825 0.089431
v 0.143217 -1.181988 -0.143726
v 0.143217 1.160825 -0.143726
v 0.143217 -1.181988 0.089431
v 0.143217 1.160825 0.089431
vn -1.0000 0.0000 0.0000
vn 0.0000 0.0000 1.0000
vn 1.0000 0.0000 0.0000
vn 0.0000 0.0000 -1.0000
vn 0.0000 -1.0000 0.0000
vn 0.0000 1.0000 0.0000
usemtl None
s off
f 33//25 35//25 36//25 34//25
f 35//26 39//26 40//26 36//26
f 39//27 37//27 38//27 40//27
f 37//28 33//28 34//28 38//28
f 35//29 33//29 37//29 39//29
f 40//30 38//30 34//30 36//30
