# WaveFront *.obj file (generated by CINEMA 4D)

mtllib ./RePuzzlePiece1.mtl

v 0.5 0.5 0
v 0.5 0.20000000298023 0
v 0.75 0 0
v 0.5 -0.20000000298023 0
v 0.5 -0.5 0
v 0.20000000298023 -0.5 0
v 0 -0.5 0
v -0.20000000298023 -0.5 0
v -0.5 -0.5 0
v -0.5 -0.20000000298023 0
v -0.5 0 0
v -0.5 0.20000000298023 0
v -0.5 0.5 0
v -0.20000000298023 0.5 0
v 0 0.75 0
v 0.20000000298023 0.5 0
v 0.5 0.5 -0.10000000149012
v 0.5 0.20000000298023 -0.10000000149012
v 0.75 0 -0.10000000149012
v 0.5 -0.20000000298023 -0.10000000149012
v 0.5 -0.5 -0.10000000149012
v 0.20000000298023 -0.5 -0.10000000149012
v 0 -0.5 -0.10000000149012
v -0.20000000298023 -0.5 -0.10000000149012
v -0.5 -0.5 -0.10000000149012
v -0.5 -0.20000000298023 -0.10000000149012
v -0.5 0 -0.10000000149012
v -0.5 0.20000000298023 -0.10000000149012
v -0.5 0.5 -0.10000000149012
v -0.20000000298023 0.5 -0.10000000149012
v 0 0.75 -0.10000000149012
v 0.20000000298023 0.5 -0.10000000149012
# 32 vertices

vn 1 0 0
vn 0.62469506263733 0.78086882829666 0
vn 0.62469506263733 -0.78086882829666 0
vn 0 -1 0
vn -1 0 0
vn 0 1 0
vn -0.78086882829666 0.62469506263733 0
vn 0.78086882829666 0.62469506263733 0
# 8 normals

vt 0 1 0
vt 0 0 0
vt 0.06695494800806 0 0
vt 0.06695494800806 1 0
vt 0.13840842247009 0 0
vt 0.13840842247009 1 0
vt 0.20986188948154 0 0
vt 0.20986188948154 1 0
vt 0.27681684494019 0 0
vt 0.27681684494019 1 0
vt 0.34377178549767 0 0
vt 0.34377178549767 1 0
vt 0.38840842247009 0 0
vt 0.38840842247009 1 0
vt 0.43304505944252 0 0
vt 0.43304505944252 1 0
vt 0.5 0 0
vt 0.5 1 0
vt 0.5669549703598 0 0
vt 0.5669549703598 1 0
vt 0.61159157752991 0 0
vt 0.61159157752991 1 0
vt 0.65622818470001 0 0
vt 0.65622818470001 1 0
vt 0.72318315505981 0 0
vt 0.72318315505981 1 0
vt 0.79013812541962 0 0
vt 0.79013812541962 1 0
vt 0.86159157752991 0 0
vt 0.86159157752991 1 0
vt 0.9330450296402 0 0
vt 0.9330450296402 1 0
vt 1 0 0
vt 1 1 0
# 34 texture coordinates

o Extrude
usemtl default
f 2/4/1 18/3/1 17/2/1 1/1/1
f 3/6/2 19/5/2 18/3/2 2/4/2
f 4/8/3 20/7/3 19/5/3 3/6/3
f 5/10/1 21/9/1 20/7/1 4/8/1
f 6/12/4 22/11/4 21/9/4 5/10/4
f 7/14/4 23/13/4 22/11/4 6/12/4
f 8/16/4 24/15/4 23/13/4 7/14/4
f 9/18/4 25/17/4 24/15/4 8/16/4
f 10/20/5 26/19/5 25/17/5 9/18/5
f 11/22/5 27/21/5 26/19/5 10/20/5
f 12/24/5 28/23/5 27/21/5 11/22/5
f 13/26/5 29/25/5 28/23/5 12/24/5
f 14/28/6 30/27/6 29/25/6 13/26/6
f 15/30/7 31/29/7 30/27/7 14/28/7
f 16/32/8 32/31/8 31/29/8 15/30/8
f 1/34/6 17/33/6 32/31/6 16/32/6

# 0 vertex

vn 0 0 1
vn 0 0 0
# 2 normals

vt 0.80000001192093 0.80000001192093 0
vt 0.80000001192093 0.56000000238419 0
vt 0.56000000238419 0.80000001192093 0
vt 1 0.39999997615814 0
vt 0.80000001192093 0.24000000953674 0
vt 0.40000000596046 0 0
vt 0.56000000238419 0 0
vt 0 0.39999997615814 0
vt 0.80000001192093 0 0
vt 0.23999999463558 0 0
vt 0 0.24000000953674 0
vt 0 0.56000000238419 0
vt 0.23999999463558 0.80000001192093 0
vt 0 0.80000001192093 0
vt 0.40000000596046 1 0
# 15 texture coordinates

o Cap_1
usemtl default
f 16/37/10 15/49/9 14/47/9 13/48/9 12/46/9 11/42/9 10/45/9 9/2/9 8/44/9 7/40/9 6/41/9 5/43/9 4/39/9 3/38/9 2/36/9 1/35/9

# 0 vertex

vn 0 0 -1
# 1 normal

# 0 texture coordinate

o Cap_2
usemtl default
f 18/36/11 19/38/11 20/39/11 21/43/11 22/41/11 23/40/11 24/44/11 25/2/11 26/45/11 27/42/11 28/46/11 29/48/11 30/47/11 31/49/11 32/37/11 17/35/10

