# WaveFront *.obj file (generated by CINEMA 4D)

mtllib ./Puzzle3Piece19.mtl

v 0.5 0.5 0
v 0.5 0.20000000298023 0
v 0.75 0 0
v 0.5 -0.20000000298023 0
v 0.5 -0.5 0
v 0.20000000298023 -0.5 0
v 0 -0.25 0
v -0.20000000298023 -0.5 0
v -0.5 -0.5 0
v -0.5 -0.20000000298023 0
v -0.25 0 0
v -0.5 0.20000000298023 0
v -0.5 0.5 0
v -0.20000000298023 0.5 0
v 0 0.75 0
v 0.20000000298023 0.5 0
v 0.5 0.5 -0.10000000149012
v 0.5 0.20000000298023 -0.10000000149012
v 0.75 0 -0.10000000149012
v 0.5 -0.20000000298023 -0.10000000149012
v 0.5 -0.5 -0.10000000149012
v 0.20000000298023 -0.5 -0.10000000149012
v 0 -0.25 -0.10000000149012
v -0.20000000298023 -0.5 -0.10000000149012
v -0.5 -0.5 -0.10000000149012
v -0.5 -0.20000000298023 -0.10000000149012
v -0.25 0 -0.10000000149012
v -0.5 0.20000000298023 -0.10000000149012
v -0.5 0.5 -0.10000000149012
v -0.20000000298023 0.5 -0.10000000149012
v 0 0.75 -0.10000000149012
v 0.20000000298023 0.5 -0.10000000149012
v -0.5 -0.4947244822979 -0.10000000149012
# 33 vertices

vn 1 0 0
vn 0.62469506263733 0.78086882829666 0
vn 0.62469506263733 -0.78086882829666 0
vn 0 -1 0
vn -0.78086882829666 -0.62469506263733 0
vn 0.78086882829666 -0.62469506263733 0
vn -1 0 0
vn 0 0 0
vn -0.62469506263733 0.78086882829666 0
vn -0.62469506263733 -0.78086882829666 0
vn 0 1 0
vn -0.78086882829666 0.62469506263733 0
vn 0.78086882829666 0.62469506263733 0
# 13 normals

vt 0 1 0
vt 0 0 0
vt 0.06046863645315 0 0
vt 0.06046863645315 1 0
vt 0.125 0 0
vt 0.125 1 0
vt 0.18953137099743 0 0
vt 0.18953137099743 1 0
vt 0.25 0 0
vt 0.25 1 0
vt 0.31046864390373 0 0
vt 0.31046864390373 1 0
vt 0.375 0 0
vt 0.375 1 0
vt 0.43953135609627 0 0
vt 0.43953135609627 1 0
vt 0.5 0 0
vt 0.5 1 0
vt 0.50106334686279 0 0
vt 0.56046861410141 1 0
vt 0.56046861410141 0 0
vt 0.625 0 0
vt 0.625 1 0
vt 0.68953138589859 0 0
vt 0.68953138589859 1 0
vt 0.75 0 0
vt 0.75 1 0
vt 0.81046861410141 0 0
vt 0.81046861410141 1 0
vt 0.875 0 0
vt 0.875 1 0
vt 0.93953138589859 0 0
vt 0.93953138589859 1 0
vt 1 0 0
vt 1 1 0
# 35 texture coordinates

o Extrude
usemtl default
f 2/4/1 18/3/1 17/2/1 1/1/1
f 3/6/2 19/5/2 18/3/2 2/4/2
f 4/8/3 20/7/3 19/5/3 3/6/3
f 5/10/1 21/9/1 20/7/1 4/8/1
f 6/12/4 22/11/4 21/9/4 5/10/4
f 7/14/5 23/13/5 22/11/5 6/12/5
f 8/16/6 24/15/6 23/13/6 7/14/6
f 9/18/4 25/17/4 24/15/4 8/16/4
f 33/19/7 25/17/7 9/18/7
f 11/23/9 27/22/9 26/21/9 10/20/9
f 12/25/10 28/24/10 27/22/10 11/23/10
f 13/27/7 29/26/7 28/24/7 12/25/7
f 14/29/11 30/28/11 29/26/11 13/27/11
f 15/31/12 31/30/12 30/28/12 14/29/12
f 16/33/13 32/32/13 31/30/13 15/31/13
f 1/35/11 17/34/11 32/32/11 16/33/11
f 9/18/7 10/20/7 26/21/7 33/19/7

# 0 vertex

vn 0 0 1
# 1 normal

vt 0.80000001192093 0.80000001192093 0
vt 0.20000000298023 0.39999997615814 0
vt 0.56000000238419 0.80000001192093 0
vt 0.23999999463558 0.80000001192093 0
vt 0.40000000596046 1 0
vt 0 0.56000000238419 0
vt 0.80000001192093 0.56000000238419 0
vt 1 0.39999997615814 0
vt 0.80000001192093 0.24000000953674 0
vt 0 0.24000000953674 0
vt 0 0.80000001192093 0
vt 0.40000000596046 0.20000004768372 0
vt 0.56000000238419 0 0
vt 0.80000001192093 0 0
vt 0.23999999463558 0 0
# 15 texture coordinates

o Cap_1
usemtl Mat.2
f 16/38/14 15/40/14 14/39/14 13/46/14 12/41/14 11/37/14 10/45/14 9/2/14 1/36/14

usemtl Mat.1
f 9/2/14 8/50/14 7/47/14 6/48/14 5/49/14 4/44/14 3/43/14 2/42/14 1/36/14

# 0 vertex

vn 0 0 -1
# 1 normal

# 0 texture coordinate

o Cap_2
usemtl default
f 18/42/15 19/43/15 20/44/15 21/49/15 22/48/15 23/47/15 24/50/15 25/2/15 26/45/15 27/37/15 28/41/15 29/46/15 30/39/15 31/40/15 32/38/15 17/36/8

