# WaveFront *.obj file (generated by CINEMA 4D)

mtllib ./Puzzle3Piece16.mtl

v 0.5 0.5 0
v 0.5 0.20000000298023 0
v 0.75 0 0
v 0.5 -0.20000000298023 0
v 0.5 -0.5 0
v 0.20000000298023 -0.5 0
v 0 -0.25 0
v -0.20000000298023 -0.5 0
v -0.5 -0.5 0
v -0.5 -0.20000000298023 0
v -0.5 0 0
v -0.5 0.20000000298023 0
v -0.5 0.5 0
v -0.20000000298023 0.5 0
v 0 0.25 0
v 0.20000000298023 0.5 0
v 0.5 0.5 -0.10000000149012
v 0.5 0.20000000298023 -0.10000000149012
v 0.75 0 -0.10000000149012
v 0.5 -0.20000000298023 -0.10000000149012
v 0.5 -0.5 -0.10000000149012
v 0.20000000298023 -0.5 -0.10000000149012
v 0 -0.25 -0.10000000149012
v -0.20000000298023 -0.5 -0.10000000149012
v -0.5 -0.5 -0.10000000149012
v -0.5 -0.20000000298023 -0.10000000149012
v -0.5 0 -0.10000000149012
v -0.5 0.20000000298023 -0.10000000149012
v -0.5 0.5 -0.10000000149012
v -0.20000000298023 0.5 -0.10000000149012
v 0 0.25 -0.10000000149012
v 0.20000000298023 0.5 -0.10000000149012
v 0.49506950378418 -0.5 -0.10000000149012
v -0.5 0.49506950378418 -0.10000000149012
# 34 vertices

vn 1 0 0
vn 0.62469506263733 0.78086882829666 0
vn 0.62469506263733 -0.78086882829666 0
vn 0 -1 0
vn 0 0 0
vn -0.78086882829666 -0.62469506263733 0
vn 0.78086882829666 -0.62469506263733 0
vn -1 0 0
vn 0 1 0
vn 0.78086882829666 0.62469506263733 0
vn -0.78086882829666 0.62469506263733 0
# 11 normals

vt 0 1 0
vt 0 0 0
vt 0.06354670226574 0 0
vt 0.06354670226574 1 0
vt 0.13136294484138 0 0
vt 0.13136294484138 1 0
vt 0.19917918741703 0 0
vt 0.19917918741703 1 0
vt 0.26272588968277 0 0
vt 0.26272588968277 1 0
vt 0.26377028226852 0 0
vt 0.32627257704735 1 0
vt 0.32627257704735 0 0
vt 0.39408883452415 0 0
vt 0.39408883452415 1 0
vt 0.46190506219864 0 0
vt 0.46190506219864 1 0
vt 0.52545177936554 0 0
vt 0.52545177936554 1 0
vt 0.58899849653244 0 0
vt 0.58899849653244 1 0
vt 0.63136291503906 0 0
vt 0.63136291503906 1 0
vt 0.67372739315033 0 0
vt 0.67372739315033 1 0
vt 0.73622971773148 0 0
vt 0.73727411031723 0 0
vt 0.73727411031723 1 0
vt 0.80082082748413 0 0
vt 0.80082082748413 1 0
vt 0.86863708496094 0 0
vt 0.86863708496094 1 0
vt 0.9364532828331 0 0
vt 0.9364532828331 1 0
vt 1 0 0
vt 1 1 0
# 36 texture coordinates

o Extrude
usemtl default
f 2/4/1 18/3/1 17/2/1 1/1/1
f 3/6/2 19/5/2 18/3/2 2/4/2
f 4/8/3 20/7/3 19/5/3 3/6/3
f 5/10/1 21/9/1 20/7/1 4/8/1
f 33/11/4 21/9/4 5/10/4
f 7/15/6 23/14/6 22/13/6 6/12/6
f 8/17/7 24/16/7 23/14/7 7/15/7
f 9/19/4 25/18/4 24/16/4 8/17/4
f 10/21/8 26/20/8 25/18/8 9/19/8
f 11/23/8 27/22/8 26/20/8 10/21/8
f 12/25/8 28/24/8 27/22/8 11/23/8
f 13/28/8 29/27/8 34/26/8
f 14/30/9 30/29/9 29/27/9 13/28/9
f 15/32/10 31/31/10 30/29/10 14/30/10
f 16/34/11 32/33/11 31/31/11 15/32/11
f 1/36/9 17/35/9 32/33/9 16/34/9
f 5/10/4 6/12/4 22/13/4 33/11/4
f 34/26/8 28/24/8 12/25/8 13/28/8

# 0 vertex

vn 0 0 1
# 1 normal

vt 0.80000001192093 1 0
vt 0.80000001192093 0.75999999046326 0
vt 0.56000000238419 1 0
vt 0.23999999463558 1 0
vt 0.40000000596046 0.80000001192093 0
vt 0.80000001192093 0.20000004768372 0
vt 0.40000000596046 0.39999997615814 0
vt 0 0.75999999046326 0
vt 1 0.60000002384186 0
vt 0.80000001192093 0.44000005722046 0
vt 0.23999999463558 0.20000004768372 0
vt 0 0.44000005722046 0
vt 0 0.60000002384186 0
vt 0.56000000238419 0.20000004768372 0
vt 0 0.20000004768372 0
# 15 texture coordinates

o Cap_1
usemtl Mat.1
f 16/39/5 15/41/12 14/40/12 13/1/12 5/42/12 4/46/12 3/45/12 2/38/12 1/37/12

usemtl Mat
f 13/1/12 12/44/12 11/49/12 10/48/12 9/51/12 8/47/12 7/43/12 6/50/12 5/42/12

# 0 vertex

vn 0 0 -1
# 1 normal

# 0 texture coordinate

o Cap_2
usemtl default
f 18/38/13 19/45/13 20/46/13 21/42/13 22/50/13 23/43/13 24/47/13 25/51/13 26/48/13 27/49/13 28/44/13 29/1/13 30/40/13 31/41/13 32/39/13 17/37/13

