# WaveFront *.obj file (generated by CINEMA 4D)

mtllib ./Puzzle2Piece9.mtl

v -0.5 -0.5 0
v -0.5 -0.20000000298023 0
v -0.75 0 0
v -0.5 0.20000000298023 0
v -0.5 0.5 0
v -0.20000000298023 0.5 0
v 0 0.25 0
v 0.20000000298023 0.5 0
v 0.5 0.5 0
v 0.5 0.20000000298023 0
v 0.5 0 0
v 0.5 -0.20000000298023 0
v 0.5 -0.5 0
v 0.20000000298023 -0.5 0
v 0 -0.25 0
v -0.20000000298023 -0.5 0
v -0.5 -0.5 -0.10000000149012
v -0.5 -0.20000000298023 -0.10000000149012
v -0.75 0 -0.10000000149012
v -0.5 0.20000000298023 -0.10000000149012
v -0.5 0.5 -0.10000000149012
v -0.20000000298023 0.5 -0.10000000149012
v 0 0.25 -0.10000000149012
v 0.20000000298023 0.5 -0.10000000149012
v 0.5 0.5 -0.10000000149012
v 0.5 0.20000000298023 -0.10000000149012
v 0.5 0 -0.10000000149012
v 0.5 -0.20000000298023 -0.10000000149012
v 0.5 -0.5 -0.10000000149012
v 0.20000000298023 -0.5 -0.10000000149012
v 0 -0.25 -0.10000000149012
v -0.20000000298023 -0.5 -0.10000000149012
v 0.5 0.49621644616127 -0.10000000149012
v -0.49621644616127 -0.5 -0.10000000149012
# 34 vertices

vn -1 0 0
vn -0.62469506263733 -0.78086882829666 0
vn -0.62469506263733 0.78086882829666 0
vn 0 1 0
vn 0.78086882829666 0.62469506263733 0
vn -0.78086882829666 0.62469506263733 0
vn 1 0 0
vn 0 0 0
vn 0 -1 0
vn -0.78086882829666 -0.62469506263733 0
vn 0.78086882829666 -0.62469506263733 0
vn 1 0 0
vn 0 -1 0
# 13 normals

vt 0 1 0
vt 0 0 0
vt 0.06354670226574 0 0
vt 0.06354670226574 1 0
vt 0.13136294484138 0 0
vt 0.13136294484138 1 0
vt 0.19917918741703 0 0
vt 0.19917918741703 1 0
vt 0.26272588968277 0 0
vt 0.26272588968277 1 0
vt 0.32627257704735 0 0
vt 0.32627257704735 1 0
vt 0.39408883452415 0 0
vt 0.39408883452415 1 0
vt 0.46190506219864 0 0
vt 0.46190506219864 1 0
vt 0.52545177936554 0 0
vt 0.52545177936554 1 0
vt 0.52625322341919 0 0
vt 0.58899849653244 1 0
vt 0.58899849653244 0 0
vt 0.63136291503906 0 0
vt 0.63136291503906 1 0
vt 0.67372739315033 0 0
vt 0.67372739315033 1 0
vt 0.73727411031723 0 0
vt 0.73727411031723 1 0
vt 0.80082082748413 0 0
vt 0.80082082748413 1 0
vt 0.86863708496094 0 0
vt 0.86863708496094 1 0
vt 0.9364532828331 0 0
vt 0.9364532828331 1 0
vt 0.99919855594635 0 0
vt 1 0 0
vt 1 1 0
# 36 texture coordinates

o Extrude
usemtl Mat
f 2/4/1 18/3/1 17/2/1 1/1/1
f 3/6/2 19/5/2 18/3/2 2/4/2
f 4/8/3 20/7/3 19/5/3 3/6/3
f 5/10/1 21/9/1 20/7/1 4/8/1
f 6/12/4 22/11/4 21/9/4 5/10/4
f 7/14/5 23/13/5 22/11/5 6/12/5
f 8/16/6 24/15/6 23/13/6 7/14/6
f 9/18/4 25/17/4 24/15/4 8/16/4
f 33/19/7 25/17/7 9/18/7
f 11/23/7 27/22/7 26/21/7 10/20/7
f 12/25/7 28/24/7 27/22/7 11/23/7
f 13/27/7 29/26/7 28/24/7 12/25/7
f 14/29/9 30/28/9 29/26/9 13/27/9
f 15/31/10 31/30/10 30/28/10 14/29/10
f 16/33/11 32/32/11 31/30/11 15/31/11
f 1/36/9 17/35/9 34/34/9
f 9/18/12 10/20/12 26/21/12 33/19/12
f 34/34/13 32/32/13 16/33/13 1/36/13

v -0.75 0 0
v 0.5 0 0
# 2 vertices

vn 0 0 1
# 1 normal

vt 0.40000000596046 0.80000001192093 0
vt 0.80000001192093 1 0
vt 0 0.20000004768372 0
vt 0 0.44000005722046 0
vt 0 0.75999999046326 0
vt 0.23999999463558 1 0
vt 0.80000001192093 0.75999999046326 0
vt 1 0.60000002384186 0
vt 0.80000001192093 0.44000005722046 0
vt 0.56000000238419 1 0
vt 0 0.60000002384186 0
vt 0.40000000596046 0.39999997615814 0
vt 0.56000000238419 0.20000004768372 0
vt 0.80000001192093 0.20000004768372 0
vt 0.23999999463558 0.20000004768372 0
# 15 texture coordinates

o Cap_1
usemtl Mat.2
f 16/46/8 15/37/14 14/42/14 13/1/14 12/41/14 36/47/14 10/40/14 9/39/14 1/38/14

usemtl Mat.1
f 9/39/14 8/51/14 7/48/14 6/49/14 5/50/14 4/45/14 35/44/14 2/43/14 1/38/14

# 0 vertex

vn 0 0 -1
# 1 normal

# 0 texture coordinate

o Cap_2
usemtl Mat
f 18/43/15 19/44/15 20/45/15 21/50/15 22/49/15 23/48/15 24/51/15 25/39/15 26/40/15 27/47/15 28/41/15 29/1/15 30/42/15 31/37/15 32/46/15 17/38/15

