# WaveFront *.obj file (generated by CINEMA 4D)

mtllib ./Puzzle2Piece12.mtl

v -0.5 0.5 0
v -0.20000000298023 0.5 0
v 0 0.75 0
v 0.20000000298023 0.5 0
v 0.5 0.5 0
v 0.5 0.20000000298023 0
v 0.5 0 0
v 0.5 -0.20000000298023 0
v 0.5 -0.5 0
v 0.20000000298023 -0.5 0
v 0 -0.5 0
v -0.20000000298023 -0.5 0
v -0.5 -0.5 0
v -0.5 -0.20000000298023 0
v -0.75 0 0
v -0.5 0.20000000298023 0
v -0.5 0.5 -0.10000000149012
v -0.20000000298023 0.5 -0.10000000149012
v 0 0.75 -0.10000000149012
v 0.20000000298023 0.5 -0.10000000149012
v 0.5 0.5 -0.10000000149012
v 0.5 0.20000000298023 -0.10000000149012
v 0.5 0 -0.10000000149012
v 0.5 -0.20000000298023 -0.10000000149012
v 0.5 -0.5 -0.10000000149012
v 0.20000000298023 -0.5 -0.10000000149012
v 0 -0.5 -0.10000000149012
v -0.20000000298023 -0.5 -0.10000000149012
v -0.5 -0.5 -0.10000000149012
v -0.5 -0.20000000298023 -0.10000000149012
v -0.75 0 -0.10000000149012
v -0.5 0.20000000298023 -0.10000000149012
v 0.48376804590225 -0.5 -0.10000000149012
v -0.5 0.48376804590225 -0.10000000149012
# 34 vertices

vn 0 1 0
vn -0.78086882829666 0.62469506263733 0
vn 0.78086882829666 0.62469506263733 0
vn 1 0 0
vn 0 -1 0
vn 0 0 0
vn -1 0 0
vn -0.62469506263733 -0.78086882829666 0
vn -0.62469506263733 0.78086882829666 0
# 9 normals

vt 0 1 0
vt 0 0 0
vt 0.06695494800806 0 0
vt 0.06695494800806 1 0
vt 0.13840842247009 0 0
vt 0.13840842247009 1 0
vt 0.20986188948154 0 0
vt 0.20986188948154 1 0
vt 0.27681684494019 0 0
vt 0.27681684494019 1 0
vt 0.34377178549767 0 0
vt 0.34377178549767 1 0
vt 0.38840842247009 0 0
vt 0.38840842247009 1 0
vt 0.43304505944252 0 0
vt 0.43304505944252 1 0
vt 0.5 0 0
vt 0.5 1 0
vt 0.5036227107048 0 0
vt 0.5669549703598 1 0
vt 0.5669549703598 0 0
vt 0.61159157752991 0 0
vt 0.61159157752991 1 0
vt 0.65622818470001 0 0
vt 0.65622818470001 1 0
vt 0.72318315505981 0 0
vt 0.72318315505981 1 0
vt 0.79013812541962 0 0
vt 0.79013812541962 1 0
vt 0.86159157752991 0 0
vt 0.86159157752991 1 0
vt 0.9330450296402 0 0
vt 0.9330450296402 1 0
vt 0.9963772892952 0 0
vt 1 0 0
vt 1 1 0
# 36 texture coordinates

o Extrude
usemtl Mat
f 2/4/1 18/3/1 17/2/1 1/1/1
f 3/6/2 19/5/2 18/3/2 2/4/2
f 4/8/3 20/7/3 19/5/3 3/6/3
f 5/10/1 21/9/1 20/7/1 4/8/1
f 6/12/4 22/11/4 21/9/4 5/10/4
f 7/14/4 23/13/4 22/11/4 6/12/4
f 8/16/4 24/15/4 23/13/4 7/14/4
f 9/18/4 25/17/4 24/15/4 8/16/4
f 33/19/5 25/17/5 9/18/5
f 11/23/5 27/22/5 26/21/5 10/20/5
f 12/25/5 28/24/5 27/22/5 11/23/5
f 13/27/5 29/26/5 28/24/5 12/25/5
f 14/29/7 30/28/7 29/26/7 13/27/7
f 15/31/8 31/30/8 30/28/8 14/29/8
f 16/33/9 32/32/9 31/30/9 15/31/9
f 1/36/7 17/35/7 34/34/7
f 9/18/5 10/20/5 26/21/5 33/19/5
f 34/34/7 32/32/7 16/33/7 1/36/7

v 0.5 0 0
v -0.75 0 0
# 2 vertices

vn 0 0 1
# 1 normal

vt 0.56000000238419 0.80000001192093 0
vt 0.80000001192093 0.80000001192093 0
vt 0 0.24000000953674 0
vt 0.23999999463558 0.80000001192093 0
vt 0.40000000596046 1 0
vt 0 0.39999997615814 0
vt 0 0.56000000238419 0
vt 0.80000001192093 0.56000000238419 0
vt 1 0.39999997615814 0
vt 0.80000001192093 0.24000000953674 0
vt 0 0.80000001192093 0
vt 0.40000000596046 0 0
vt 0.23999999463558 0 0
vt 0.80000001192093 0 0
vt 0.56000000238419 0 0
# 15 texture coordinates

o Cap_1
usemtl Mat.2
f 16/37/10 36/41/10 14/40/10 13/47/10 12/43/10 11/42/10 10/39/10 9/2/10 1/38/10

usemtl Mat.1
f 9/2/10 8/49/10 35/48/10 6/51/10 5/50/10 4/46/10 3/45/10 2/44/10 1/38/10

# 0 vertex

vn 0 0 -1
# 1 normal

# 0 texture coordinate

o Cap_2
usemtl Mat
f 18/44/11 19/45/11 20/46/11 21/50/11 22/51/11 23/48/11 24/49/11 25/2/11 26/39/11 27/42/11 28/43/11 29/47/11 30/40/11 31/41/11 32/37/11 17/38/6

